<?xml version="1.0" encoding="UTF-8"?>
<svg width="100" height="100" xmlns="http://www.w3.org/2000/svg">
 <g>
  <title>Layer 1</title>
  <path fill-rule="evenodd" clip-rule="evenodd" d="m34.299,89.101997c-15.438999,-4.574997 -59.973,-24.125999 -9.504,-89.101997c27.290998,18.521 37.807001,34.817001 39.754011,48.283001c-13.054012,4.674999 -22.041012,13.764 -20.921013,30.207996c-7.109997,-16.908997 -12.687998,-40.294998 -15.080997,-54.875998c-1.200001,17.032999 1.313,47.329 5.751999,65.486998z" id="svg_1" fill="#14a589"/>
  <path fill-rule="evenodd" clip-rule="evenodd" d="m51.771999,93.183998c-3.757999,-10.445999 -11.564999,-44.405998 46.768002,-42.533997c1.711998,53.348 -26.543999,51.378998 -39.375999,47.778c5.311996,-10.340004 12.150002,-19.672005 20.803001,-27.551003c-10.615005,5.876999 -20.068005,13.332001 -28.195004,22.306999z" id="svg_2" fill="#f94b06"/>
 </g>

</svg>