<svg xmlns="http://www.w3.org/2000/svg" xmlns:xlink="http://www.w3.org/1999/xlink" version="1.1" id="Layer_1" x="0px" y="0px" width="100px" height="100px" viewBox="0 0 100 100" enable-background="new 0 0 100 100" xml:space="preserve">
<path fill-rule="evenodd" clip-rule="evenodd" d="M34.299,89.102C18.86,84.527-25.674,64.976,24.795,0  c27.291,18.521,37.807,34.817,39.754,48.283c-13.054,4.675-22.041,13.764-20.921,30.208c-7.11-16.909-12.688-40.295-15.081-54.876  C27.347,40.648,29.86,70.944,34.299,89.102z"/>
<path fill-rule="evenodd" clip-rule="evenodd" d="M51.772,93.184C48.014,82.738,40.207,48.778,98.54,50.65  c1.712,53.348-26.544,51.379-39.376,47.778c5.312-10.34,12.15-19.672,20.803-27.551C69.352,76.754,59.899,84.209,51.772,93.184z"/>
</svg>